# Blender 4.3.2
# www.blender.org
o door-lock
v 0.730000 0.780000 0.300000
v 0.730000 1.010000 0.300000
v 0.730000 0.780000 0.250000
v 0.730000 1.010000 0.250000
v 0.930000 0.780000 0.300000
v 0.930000 1.010000 0.300000
v 0.930000 0.780000 0.250000
v 0.930000 1.010000 0.250000
vn -1.0000 -0.0000 -0.0000
vn 1.0000 -0.0000 -0.0000
vn -0.0000 -0.0000 1.0000
vn -0.0000 -1.0000 -0.0000
vn -0.0000 1.0000 -0.0000
vt 0.708333 0.065104
vt 0.708333 0.111979
vt 0.697917 0.111979
vt 0.697917 0.065104
vt 0.760417 0.065104
vt 0.760417 0.111979
vt 0.750000 0.111979
vt 0.750000 0.065104
vt 0.708333 0.054688
vt 0.750000 0.054688
vt 0.750000 0.122396
vt 0.708333 0.122396
s 0
f 1/1/1 2/2/1 4/3/1 3/4/1
f 7/5/2 8/6/2 6/7/2 5/8/2
f 5/8/3 6/7/3 2/2/3 1/1/3
f 3/9/4 7/10/4 5/8/4 1/1/4
f 8/11/5 4/12/5 2/2/5 6/7/5
