# Blender 4.3.2
# www.blender.org
o secret-button-tile
v 0.006515 1.000000 -1.050000
v 0.464041 1.000000 -1.050000
v 0.006515 0.774510 -1.050000
v 0.464041 0.774510 -1.050000
v 0.006515 1.000000 -0.950000
v 0.464041 1.000000 -0.950000
v 0.006515 0.774510 -0.950000
v 0.464041 0.774510 -0.950000
vn -0.0000 1.0000 -0.0000
vn -1.0000 -0.0000 -0.0000
vn -0.0000 -1.0000 -0.0000
vn 1.0000 -0.0000 -0.0000
vn -0.0000 -0.0000 1.0000
vt 0.617188 0.283854
vt 0.528646 0.283854
vt 0.528646 0.265625
vt 0.617188 0.265625
vt 0.510417 0.221354
vt 0.528646 0.221354
vt 0.510417 0.265625
vt 0.617188 0.203125
vt 0.617188 0.221354
vt 0.528646 0.203125
vt 0.635417 0.221354
vt 0.635417 0.265625
s 0
f 2/1/1 1/2/1 5/3/1 6/4/1
f 3/5/2 7/6/2 5/3/2 1/7/2
f 4/8/3 8/9/3 7/6/3 3/10/3
f 4/11/4 2/12/4 6/4/4 8/9/4
f 5/3/5 7/6/5 8/9/5 6/4/5
