# Blender 4.3.2
# www.blender.org
o spiketrap-spikes
v -0.000000 0.000000 0.100000
v -0.000000 -0.000000 -0.100000
v -0.000000 -1.000000 0.100000
v -0.000000 -1.000000 -0.100000
v 0.100000 -1.000000 -0.000000
v -0.100000 -1.000000 -0.000000
v 0.100000 -0.000000 0.000000
v -0.100000 0.000000 -0.000000
v 0.350000 0.000000 0.100000
v 0.350000 -0.000000 -0.100000
v 0.350000 -1.000000 0.100000
v 0.350000 -1.000000 -0.100000
v 0.450000 -1.000000 -0.000000
v 0.250000 -1.000000 -0.000000
v 0.450000 -0.000000 0.000000
v 0.250000 0.000000 -0.000000
v 0.700000 0.000000 0.100000
v 0.700000 -0.000000 -0.100000
v 0.700000 -1.000000 0.100000
v 0.700000 -1.000000 -0.100000
v 0.800000 -1.000000 -0.000000
v 0.600000 -1.000000 -0.000000
v 0.800000 -0.000000 0.000000
v 0.600000 0.000000 -0.000000
v -0.700000 0.000000 0.100000
v -0.700000 -0.000000 -0.100000
v -0.700000 -1.000000 0.100000
v -0.700000 -1.000000 -0.100000
v -0.600000 -1.000000 -0.000000
v -0.800000 -1.000000 -0.000000
v -0.600000 -0.000000 0.000000
v -0.800000 0.000000 -0.000000
v -0.350000 0.000000 0.100000
v -0.350000 -0.000000 -0.100000
v -0.350000 -1.000000 0.100000
v -0.350000 -1.000000 -0.100000
v -0.250000 -1.000000 -0.000000
v -0.450000 -1.000000 -0.000000
v -0.250000 -0.000000 0.000000
v -0.450000 0.000000 -0.000000
v -0.000000 0.000000 -0.600000
v -0.000000 -0.000000 -0.800000
v -0.000000 -1.000000 -0.600000
v -0.000000 -1.000000 -0.800000
v 0.100000 -1.000000 -0.700000
v -0.100000 -1.000000 -0.700000
v 0.100000 -0.000000 -0.700000
v -0.100000 0.000000 -0.700000
v 0.350000 0.000000 -0.600000
v 0.350000 -0.000000 -0.800000
v 0.350000 -1.000000 -0.600000
v 0.350000 -1.000000 -0.800000
v 0.450000 -1.000000 -0.700000
v 0.250000 -1.000000 -0.700000
v 0.450000 -0.000000 -0.700000
v 0.250000 0.000000 -0.700000
v 0.700000 0.000000 -0.600000
v 0.700000 -0.000000 -0.800000
v 0.700000 -1.000000 -0.600000
v 0.700000 -1.000000 -0.800000
v 0.800000 -1.000000 -0.700000
v 0.600000 -1.000000 -0.700000
v 0.800000 -0.000000 -0.700000
v 0.600000 0.000000 -0.700000
v -0.700000 0.000000 -0.600000
v -0.700000 -0.000000 -0.800000
v -0.700000 -1.000000 -0.600000
v -0.700000 -1.000000 -0.800000
v -0.600000 -1.000000 -0.700000
v -0.800000 -1.000000 -0.700000
v -0.600000 -0.000000 -0.700000
v -0.800000 0.000000 -0.700000
v -0.350000 0.000000 -0.600000
v -0.350000 -0.000000 -0.800000
v -0.350000 -1.000000 -0.600000
v -0.350000 -1.000000 -0.800000
v -0.250000 -1.000000 -0.700000
v -0.450000 -1.000000 -0.700000
v -0.250000 -0.000000 -0.700000
v -0.450000 0.000000 -0.700000
v -0.000000 0.000000 0.800000
v -0.000000 -0.000000 0.600000
v -0.000000 -1.000000 0.800000
v -0.000000 -1.000000 0.600000
v 0.100000 -1.000000 0.700000
v -0.100000 -1.000000 0.700000
v 0.100000 -0.000000 0.700000
v -0.100000 0.000000 0.700000
v 0.350000 0.000000 0.800000
v 0.350000 -0.000000 0.600000
v 0.350000 -1.000000 0.800000
v 0.350000 -1.000000 0.600000
v 0.450000 -1.000000 0.700000
v 0.250000 -1.000000 0.700000
v 0.450000 -0.000000 0.700000
v 0.250000 0.000000 0.700000
v 0.700000 0.000000 0.800000
v 0.700000 -0.000000 0.600000
v 0.700000 -1.000000 0.800000
v 0.700000 -1.000000 0.600000
v 0.800000 -1.000000 0.700000
v 0.600000 -1.000000 0.700000
v 0.800000 -0.000000 0.700000
v 0.600000 0.000000 0.700000
v -0.700000 0.000000 0.800000
v -0.700000 -0.000000 0.600000
v -0.700000 -1.000000 0.800000
v -0.700000 -1.000000 0.600000
v -0.600000 -1.000000 0.700000
v -0.800000 -1.000000 0.700000
v -0.600000 -0.000000 0.700000
v -0.800000 0.000000 0.700000
v -0.350000 0.000000 0.800000
v -0.350000 -0.000000 0.600000
v -0.350000 -1.000000 0.800000
v -0.350000 -1.000000 0.600000
v -0.250000 -1.000000 0.700000
v -0.450000 -1.000000 0.700000
v -0.250000 -0.000000 0.700000
v -0.450000 0.000000 0.700000
v -0.000000 0.000000 0.450000
v -0.000000 -0.000000 0.250000
v -0.000000 -1.000000 0.450000
v -0.000000 -1.000000 0.250000
v 0.100000 -1.000000 0.350000
v -0.100000 -1.000000 0.350000
v 0.100000 -0.000000 0.350000
v -0.100000 0.000000 0.350000
v 0.350000 0.000000 0.450000
v 0.350000 -0.000000 0.250000
v 0.350000 -1.000000 0.450000
v 0.350000 -1.000000 0.250000
v 0.450000 -1.000000 0.350000
v 0.250000 -1.000000 0.350000
v 0.450000 -0.000000 0.350000
v 0.250000 0.000000 0.350000
v 0.700000 0.000000 0.450000
v 0.700000 -0.000000 0.250000
v 0.700000 -1.000000 0.450000
v 0.700000 -1.000000 0.250000
v 0.800000 -1.000000 0.350000
v 0.600000 -1.000000 0.350000
v 0.800000 -0.000000 0.350000
v 0.600000 0.000000 0.350000
v -0.700000 0.000000 0.450000
v -0.700000 -0.000000 0.250000
v -0.700000 -1.000000 0.450000
v -0.700000 -1.000000 0.250000
v -0.600000 -1.000000 0.350000
v -0.800000 -1.000000 0.350000
v -0.600000 -0.000000 0.350000
v -0.800000 0.000000 0.350000
v -0.350000 0.000000 0.450000
v -0.350000 -0.000000 0.250000
v -0.350000 -1.000000 0.450000
v -0.350000 -1.000000 0.250000
v -0.250000 -1.000000 0.350000
v -0.450000 -1.000000 0.350000
v -0.250000 -0.000000 0.350000
v -0.450000 0.000000 0.350000
v -0.000000 0.000000 -0.250000
v -0.000000 -0.000000 -0.450000
v -0.000000 -1.000000 -0.250000
v -0.000000 -1.000000 -0.450000
v 0.100000 -1.000000 -0.350000
v -0.100000 -1.000000 -0.350000
v 0.100000 -0.000000 -0.350000
v -0.100000 0.000000 -0.350000
v 0.350000 0.000000 -0.250000
v 0.350000 -0.000000 -0.450000
v 0.350000 -1.000000 -0.250000
v 0.350000 -1.000000 -0.450000
v 0.450000 -1.000000 -0.350000
v 0.250000 -1.000000 -0.350000
v 0.450000 -0.000000 -0.350000
v 0.250000 0.000000 -0.350000
v 0.700000 0.000000 -0.250000
v 0.700000 -0.000000 -0.450000
v 0.700000 -1.000000 -0.250000
v 0.700000 -1.000000 -0.450000
v 0.800000 -1.000000 -0.350000
v 0.600000 -1.000000 -0.350000
v 0.800000 -0.000000 -0.350000
v 0.600000 0.000000 -0.350000
v -0.700000 0.000000 -0.250000
v -0.700000 -0.000000 -0.450000
v -0.700000 -1.000000 -0.250000
v -0.700000 -1.000000 -0.450000
v -0.600000 -1.000000 -0.350000
v -0.800000 -1.000000 -0.350000
v -0.600000 -0.000000 -0.350000
v -0.800000 0.000000 -0.350000
v -0.350000 0.000000 -0.250000
v -0.350000 -0.000000 -0.450000
v -0.350000 -1.000000 -0.250000
v -0.350000 -1.000000 -0.450000
v -0.250000 -1.000000 -0.350000
v -0.450000 -1.000000 -0.350000
v -0.250000 -0.000000 -0.350000
v -0.450000 0.000000 -0.350000
vn -1.0000 -0.0000 -0.0000
vn -0.0000 -0.0000 -1.0000
vt 0.033854 0.843750
vt -0.000000 0.843750
vt 0.000798 0.666912
vt 0.033879 0.666912
s 0
f 1/1/1 2/2/1 4/3/1 3/4/1
f 17/1/1 18/2/1 20/3/1 19/4/1
f 24/1/2 23/2/2 21/3/2 22/4/2
f 16/1/2 15/2/2 13/3/2 14/4/2
f 9/1/1 10/2/1 12/3/1 11/4/1
f 8/1/2 7/2/2 5/3/2 6/4/2
f 25/1/1 26/2/1 28/3/1 27/4/1
f 32/1/2 31/2/2 29/3/2 30/4/2
f 33/1/1 34/2/1 36/3/1 35/4/1
f 40/1/2 39/2/2 37/3/2 38/4/2
f 41/1/1 42/2/1 44/3/1 43/4/1
f 57/1/1 58/2/1 60/3/1 59/4/1
f 64/1/2 63/2/2 61/3/2 62/4/2
f 56/1/2 55/2/2 53/3/2 54/4/2
f 49/1/1 50/2/1 52/3/1 51/4/1
f 48/1/2 47/2/2 45/3/2 46/4/2
f 65/1/1 66/2/1 68/3/1 67/4/1
f 72/1/2 71/2/2 69/3/2 70/4/2
f 73/1/1 74/2/1 76/3/1 75/4/1
f 80/1/2 79/2/2 77/3/2 78/4/2
f 81/1/1 82/2/1 84/3/1 83/4/1
f 97/1/1 98/2/1 100/3/1 99/4/1
f 104/1/2 103/2/2 101/3/2 102/4/2
f 96/1/2 95/2/2 93/3/2 94/4/2
f 89/1/1 90/2/1 92/3/1 91/4/1
f 88/1/2 87/2/2 85/3/2 86/4/2
f 105/1/1 106/2/1 108/3/1 107/4/1
f 112/1/2 111/2/2 109/3/2 110/4/2
f 113/1/1 114/2/1 116/3/1 115/4/1
f 120/1/2 119/2/2 117/3/2 118/4/2
f 121/1/1 122/2/1 124/3/1 123/4/1
f 137/1/1 138/2/1 140/3/1 139/4/1
f 144/1/2 143/2/2 141/3/2 142/4/2
f 136/1/2 135/2/2 133/3/2 134/4/2
f 129/1/1 130/2/1 132/3/1 131/4/1
f 128/1/2 127/2/2 125/3/2 126/4/2
f 145/1/1 146/2/1 148/3/1 147/4/1
f 152/1/2 151/2/2 149/3/2 150/4/2
f 153/1/1 154/2/1 156/3/1 155/4/1
f 160/1/2 159/2/2 157/3/2 158/4/2
f 161/1/1 162/2/1 164/3/1 163/4/1
f 177/1/1 178/2/1 180/3/1 179/4/1
f 184/1/2 183/2/2 181/3/2 182/4/2
f 176/1/2 175/2/2 173/3/2 174/4/2
f 169/1/1 170/2/1 172/3/1 171/4/1
f 168/1/2 167/2/2 165/3/2 166/4/2
f 185/1/1 186/2/1 188/3/1 187/4/1
f 192/1/2 191/2/2 189/3/2 190/4/2
f 193/1/1 194/2/1 196/3/1 195/4/1
f 200/1/2 199/2/2 197/3/2 198/4/2
